# File created by Blade
# Date/Time:  Tue Sep 30 19:11:40 2014
#---------------------------------------------------------
:version 1.10
:name HOM
:units
  mass 1.0
  length 1.000000
  angle deg
:documentation
     Acclaim Skeleton File
:root
   axis xyz
   order TX TY TZ RX RY RZ
   position 0.000000 0.000000 0.000000
   orientation 0 0 0
:bonedata
   begin
      id 1
      name Spine_dum
      direction 0.000000 1.000000 0.000000
      length 7.508948
      axis 0.0 0.0 0.0 xyz
   end
   begin
      id 2
      name LeftUpLeg_dum
      direction 1.000000 0.000000 0.000000
      length 3.000560
      axis 0.0 0.0 0.0 xyz
   end
   begin
      id 3
      name RightUpLeg_dum
      direction -1.000000 0.000000 0.000000
      length 3.000560
      axis 0.0 0.0 0.0 xyz
   end
   begin
      id 4
      name Spine
      direction 0.000000 1.000000 0.000000
      length 0.000000
      axis 0.0 0.0 0.0 xyz
      dof rx ry rz
   end
   begin
      id 5
      name Spine_dum1
      direction 0.000000 1.000000 0.000000
      length 13.861154
      axis 0.0 0.0 0.0 xyz
   end
   begin
      id 6
      name Spine_dum2
      direction 0.000000 1.000000 0.000000
      length 8.204781
      axis 0.0 0.0 0.0 xyz
   end
   begin
      id 7
      name Spine_dum3
      direction 0.000000 1.000000 0.000000
      length 8.204781
      axis 0.0 0.0 0.0 xyz
   end
   begin
      id 8
      name Head
      direction 0.000000 1.000000 0.000000
      length 4.527550
      axis 0.0 0.0 0.0 xyz
      dof rx ry rz
   end
   begin
      id 9
      name LeftShoulder
      direction 1.000000 0.000000 0.000000
      length 6.635956
      axis 0.0 0.0 -90.0 xyz
      dof rx ry rz
   end
   begin
      id 10
      name LeftArm
      direction 1.000000 0.000000 0.000000
      length 10.274218
      axis 0.0 0.0 -90.0 xyz
      dof rx ry rz
   end
   begin
      id 11
      name LeftForeArm
      direction 1.000000 0.000000 0.000000
      length 8.522147
      axis 0.0 0.0 -90.0 xyz
      dof ry rz rx
   end
   begin
      id 12
      name LeftHand
      direction 0.000000 0.000000 0.000000
      length 0.000000
      axis 0.0 0.0 -90.0 xyz
      dof rx ry rz
   end
   begin
      id 13
      name LeftHand_dum1
      direction 0.000000 0.000000 0.000000
      length 0.000000
      axis 0.0 0.0 -90.0 xyz
   end
   begin
      id 14
      name LeftHand_dum2
      direction 1.000000 0.000000 0.000000
      length 3.937000
      axis 0.0 0.0 -90.0 xyz
   end
   begin
      id 15
      name LeftHandThumb1
      direction 0.000000 0.000000 1.000000
      length 3.937000
      axis 0.0 0.0 -90.0 xyz
      dof rx rz ry
   end
   begin
      id 16
      name RightShoulder
      direction -1.000000 0.000000 0.000000
      length 6.635956
      axis 0.0 0.0 90.0 xyz
      dof rx ry rz
   end
   begin
      id 17
      name RightArm
      direction -1.000000 0.000000 0.000000
      length 10.274218
      axis 0.0 0.0 90.0 xyz
      dof rx ry rz
   end
   begin
      id 18
      name RightForeArm
      direction -1.000000 0.000000 0.000000
      length 8.522147
      axis 0.0 0.0 90.0 xyz
      dof ry rz rx
   end
   begin
      id 19
      name RightHand
      direction 0.000000 0.000000 0.000000
      length 0.000000
      axis 0.0 0.0 90.0 xyz
      dof rx ry rz
   end
   begin
      id 20
      name RightHand_dum1
      direction 0.000000 0.000000 0.000000
      length 0.000000
      axis 0.0 0.0 90.0 xyz
   end
   begin
      id 21
      name RightHand_dum2
      direction -1.000000 0.000000 0.000000
      length 3.937000
      axis 0.0 0.0 90.0 xyz
   end
   begin
      id 22
      name RightHandThumb1
      direction 0.000000 0.000000 1.000000
      length 3.937000
      axis 0.0 0.0 90.0 xyz
      dof rx rz ry
   end
   begin
      id 23
      name LeftUpLeg
      direction 0.000000 -1.000000 0.000000
      length 16.490845
      axis 0.0 0.0 0.0 xyz
      dof rx ry rz
   end
   begin
      id 24
      name LeftLeg
      direction 0.000000 -1.000000 0.000000
      length 14.556576
      axis 0.0 0.0 0.0 xyz
      dof rx ry rz
   end
   begin
      id 25
      name LeftFoot
      direction 0.000000 -0.258819 0.965926
      length 4.831116
      axis 15.0 0.0 0.0 xyz
      dof rx ry rz
   end
   begin
      id 26
      name LeftToeBase
      direction 0.000000 0.000000 1.000000
      length 2.952750
      axis 0.0 0.0 0.0 xyz
      dof rx ry rz
   end
   begin
      id 27
      name RightUpLeg
      direction 0.000000 -1.000000 0.000000
      length 16.490845
      axis 0.0 0.0 0.0 xyz
      dof rx ry rz
   end
   begin
      id 28
      name RightLeg
      direction 0.000000 -1.000000 0.000000
      length 14.556576
      axis 0.0 0.0 0.0 xyz
      dof rx ry rz
   end
   begin
      id 29
      name RightFoot
      direction 0.000000 -0.258819 0.965926
      length 4.831116
      axis 15.0 0.0 0.0 xyz
      dof rx ry rz
   end
   begin
      id 30
      name RightToeBase
      direction 0.000000 0.000000 1.000000
      length 2.952750
      axis 0.0 0.0 0.0 xyz
      dof rx ry rz
   end
:hierarchy
   begin
      root Spine_dum LeftUpLeg_dum RightUpLeg_dum
      Spine_dum Spine
      LeftUpLeg_dum LeftUpLeg
      RightUpLeg_dum RightUpLeg
      Spine Spine_dum1 Spine_dum2 Spine_dum3
      Spine_dum1 Head
      Spine_dum2 LeftShoulder
      Spine_dum3 RightShoulder
      LeftShoulder LeftArm
      LeftArm LeftForeArm
      LeftForeArm LeftHand
      LeftHand LeftHand_dum1 LeftHand_dum2
      LeftHand_dum1 LeftHandThumb1
      RightShoulder RightArm
      RightArm RightForeArm
      RightForeArm RightHand
      RightHand RightHand_dum1 RightHand_dum2
      RightHand_dum1 RightHandThumb1
      LeftUpLeg LeftLeg
      LeftLeg LeftFoot
      LeftFoot LeftToeBase
      RightUpLeg RightLeg
      RightLeg RightFoot
      RightFoot RightToeBase
   end

# File created by Blade
# Date/Time:  Thu Sep 25 15:41:58 2014
# Frame Rate: 120.000 fps
#------------------------------------------------------
:FULLY-SPECIFIED
:DEGREES
29
root -3.502384 32.860850 -3.419548 13.107829 -5.147250 -1.646742
Spine -10.270171 3.985352 2.875662
Head -5.836111 -20.921513 12.803760
LeftShoulder -11.462754 28.206910 21.414818
LeftArm 28.540282 -16.606373 -43.794901
LeftForeArm 4.151268 -0.000000 18.518142
LeftHand -31.821140 -0.000000 8.338495
LeftHandThumb1 -26.253704 0.000000 33.147579
RightShoulder -17.401000 7.479203 -33.525854
RightArm -8.018761 4.283020 40.879396
RightForeArm -27.489650 -0.000000 20.115498
RightHand -8.847668 -0.000000 4.991734
RightHandThumb1 -24.326973 -0.000000 -32.862282
LeftUpLeg -8.427576 6.554746 3.845376
LeftLeg 3.391818 -0.000000 -0.000000
LeftFoot -14.552720 9.891170 -22.614048
LeftToeBase 5.656433 -0.000000 -0.000000
RightUpLeg -10.934040 1.422205 1.371694
RightLeg 7.273861 -0.000000 -0.000000
RightFoot -11.675769 -0.921597 -6.042052
RightToeBase -1.219039 -0.000000 0.000000
30
root -3.515417 32.860014 -3.402541 13.053906 -5.359009 -1.625159
Spine -10.148525 3.899168 2.970085
Head -5.392205 -21.814206 12.932158
LeftShoulder -11.410749 28.142422 21.189864
LeftArm 28.708834 -15.628613 -44.350802
LeftForeArm 3.744160 -0.000000 18.435558
LeftHand -31.672987 -0.000000 8.385372
LeftHandThumb1 -26.253704 0.000000 33.147579
RightShoulder -17.480816 7.412706 -33.267374
RightArm -7.973837 3.926026 41.289769
RightForeArm -27.047754 0.000000 20.093318
RightHand -8.949754 -0.000000 4.978233
RightHandThumb1 -24.326973 -0.000000 -32.862282
LeftUpLeg -8.610202 6.314130 3.855224
LeftLeg 4.040440 -0.000000 -0.000000
LeftFoot -14.998841 10.187595 -22.802447
LeftToeBase 5.676286 -0.000000 -0.000000
RightUpLeg -10.915124 1.564634 1.334129
RightLeg 7.381005 -0.000000 -0.000000
RightFoot -11.739104 -0.905986 -6.156392
RightToeBase -1.209527 -0.000000 0.000000
31
root -3.540749 32.859683 -3.379220 12.928083 -5.669503 -1.668180
Spine -9.925681 3.800135 3.114975
Head -4.902603 -22.625178 13.025718
LeftShoulder -11.396278 28.084437 20.897186
LeftArm 28.727117 -14.759901 -44.908359
LeftForeArm 3.562443 -0.000000 18.440317
LeftHand -31.393389 -0.000000 8.477505
LeftHandThumb1 -26.253704 0.000000 33.147579
RightShoulder -17.583905 7.288860 -33.066462
RightArm -7.810455 3.538595 41.938761
RightForeArm -27.159917 -0.000000 20.121665
RightHand -9.075133 -0.000000 4.717714
RightHandThumb1 -24.326973 -0.000000 -32.862282
LeftUpLeg -8.694802 6.188142 3.942960
LeftLeg 4.719598 -0.000000 -0.000000
LeftFoot -15.440408 10.438053 -23.006228
LeftToeBase 5.579969 -0.000000 -0.000000
RightUpLeg -10.856340 1.739495 1.351962
RightLeg 7.577504 -0.000000 -0.000000
RightFoot -11.813268 -0.672482 -6.095696
RightToeBase -1.238952 -0.000000 0.000000
32
root -3.551735 32.858110 -3.360865 12.832301 -5.942017 -1.637243
Spine -9.752152 3.665867 3.196433
Head -4.424535 -23.486844 13.168864
LeftShoulder -11.441273 28.215170 20.611479
LeftArm 29.052491 -13.897296 -45.550404
LeftForeArm 3.406233 -0.000000 18.271828
LeftHand -31.247926 0.000000 8.317262
LeftHandThumb1 -26.253704 0.000000 33.147579
RightShoulder -17.702919 7.149139 -32.859854
RightArm -7.615772 3.299182 42.563964
RightForeArm -26.989156 -0.000000 20.010284
RightHand -8.843441 -0.000000 4.566546
RightHandThumb1 -24.326973 -0.000000 -32.862282
LeftUpLeg -8.878625 5.973873 3.931309
LeftLeg 5.486228 -0.000000 -0.000000
LeftFoot -15.917186 10.733211 -23.219207
LeftToeBase 5.519340 -0.000000 -0.000000
RightUpLeg -10.848248 1.842125 1.294846
RightLeg 7.802863 -0.000000 -0.000000
RightFoot -11.969716 -0.539904 -6.110657
RightToeBase -1.173829 -0.000000 0.000000
33
root -3.562650 32.856267 -3.340403 12.732229 -6.271514 -1.626713
Spine -9.559630 3.557887 3.313328
Head -3.998224 -24.265368 13.258187
LeftShoulder -11.422495 28.104377 20.318313
LeftArm 29.061139 -13.022652 -46.171993
LeftForeArm 3.499324 -0.000000 18.147600
LeftHand -30.910053 -0.000000 7.897882
LeftHandThumb1 -26.253704 0.000000 33.147579
RightShoulder -17.907265 7.048383 -32.676678
RightArm -7.309786 2.941892 43.207026
RightForeArm -26.471837 -0.000000 19.948759
RightHand -8.685557 -0.000000 4.178806
RightHandThumb1 -24.326973 -0.000000 -32.862282
LeftUpLeg -9.045730 5.796776 3.931079
LeftLeg 6.257194 -0.000000 -0.000000
LeftFoot -16.395696 11.043873 -23.456800
LeftToeBase 5.468395 -0.000000 -0.000000
RightUpLeg -10.813765 1.967339 1.266524
RightLeg 7.950192 -0.000000 -0.000000
RightFoot -12.016728 -0.400846 -6.246045
RightToeBase -1.271410 -0.000000 0.000000
34
root -3.564204 32.853765 -3.316864 12.606261 -6.604131 -1.545193
Spine -9.341230 3.397316 3.371237
Head -3.559921 -25.043164 13.323530
LeftShoulder -11.477532 28.008379 19.974168
LeftArm 29.120508 -12.090339 -46.748697
LeftForeArm 3.361914 -0.000000 18.030193
LeftHand -30.805615 -0.000000 7.583089
LeftHandThumb1 -26.253704 0.000000 33.147579
RightShoulder -18.034405 6.953254 -32.580660
RightArm -7.185577 2.857588 43.997833
RightForeArm -26.523526 -0.000000 20.007936
RightHand -9.137749 0.000000 4.800704
RightHandThumb1 -24.326973 -0.000000 -32.862282
LeftUpLeg -9.222126 5.567544 3.842884
LeftLeg 7.085534 -0.000000 -0.000000
LeftFoot -16.866101 11.407721 -23.679774
LeftToeBase 5.283434 -0.000000 -0.000000
RightUpLeg -10.721156 2.139287 1.156367
RightLeg 8.038733 -0.000000 -0.000000
RightFoot -12.112475 -0.424602 -6.437133
RightToeBase -1.238119 -0.000000 0.000000
35
root -3.572832 32.851718 -3.295558 12.492081 -6.961419 -1.534786
Spine -9.128966 3.302010 3.501125
Head -3.127998 -25.857847 13.349939
LeftShoulder -11.525071 28.095616 19.532566
LeftArm 29.358135 -11.227112 -47.234966
LeftForeArm 3.138824 -0.000000 17.788223
LeftHand -30.688913 -0.000000 7.476178
LeftHandThumb1 -26.253704 0.000000 33.147579
RightShoulder -18.201171 6.865514 -32.418332
RightArm -6.951137 2.484440 44.704101
RightForeArm -26.085930 0.000000 19.884186
RightHand -8.798451 -0.000000 3.839440
RightHandThumb1 -24.326973 -0.000000 -32.862282
LeftUpLeg -9.520829 5.728845 3.792507
LeftLeg 8.148201 -0.000000 -0.000000
LeftFoot -17.253832 11.474202 -23.749307
LeftToeBase 5.072049 -0.000000 -0.000000
RightUpLeg -10.711765 2.261520 1.131092
RightLeg 8.284236 -0.000000 -0.000000
RightFoot -12.224212 -0.354024 -6.623344
RightToeBase -1.244975 -0.000000 0.000000
